<svg width="23" height="24" viewBox="0 0 23 24" fill="none" xmlns="http://www.w3.org/2000/svg">
<path d="M9.70312 13.5H3.59375C3.40313 13.5 3.22031 13.421 3.08552 13.2803C2.95073 13.1397 2.875 12.9489 2.875 12.75V6.75C2.875 6.55109 2.95073 6.36032 3.08552 6.21967C3.22031 6.07902 3.40313 6 3.59375 6H8.98438C9.175 6 9.35782 6.07902 9.49261 6.21967C9.6274 6.36032 9.70312 6.55109 9.70312 6.75V15C9.70312 15.9946 9.3245 16.9484 8.65054 17.6517C7.97658 18.3549 7.0625 18.75 6.10938 18.75" stroke="white" stroke-width="1.5" stroke-linecap="round" stroke-linejoin="round"/>
<path d="M20.125 13.5H14.0156C13.825 13.5 13.6422 13.421 13.5074 13.2803C13.3726 13.1397 13.2969 12.9489 13.2969 12.75V6.75C13.2969 6.55109 13.3726 6.36032 13.5074 6.21967C13.6422 6.07902 13.825 6 14.0156 6H19.4062C19.5969 6 19.7797 6.07902 19.9145 6.21967C20.0493 6.36032 20.125 6.55109 20.125 6.75V15C20.125 15.9946 19.7464 16.9484 19.0724 17.6517C18.3985 18.3549 17.4844 18.75 16.5312 18.75" stroke="white" stroke-width="1.5" stroke-linecap="round" stroke-linejoin="round"/>
</svg>
